<?xml version="1.0" encoding="utf-8" ?>
<svg baseProfile="tiny" height="550" version="1.2" width="550" xmlns="http://www.w3.org/2000/svg" xmlns:ev="http://www.w3.org/2001/xml-events" xmlns:xlink="http://www.w3.org/1999/xlink"><defs /><polyline fill="none" points="125.321,142.3494 126.6465,140.8686 127.9866,139.4011 129.3411,137.9471 130.71,136.5067 132.0931,135.0799 133.4903,133.6671 134.9013,132.2682 136.3261,130.8835 137.7645,129.5131 139.2165,128.1571 140.6817,126.8156 142.1602,125.4889 143.6517,124.1769 145.1561,122.8798 146.6732,121.5978 148.2029,120.331 149.7451,119.0795 151.2996,117.8434 152.8662,116.6228 154.4448,115.4179 156.0352,114.2288 157.6372,113.0556 159.2508,111.8984 160.8757,110.7573 162.5118,109.6325 164.1589,108.524 165.8169,107.4319 167.4856,106.3564 169.1648,105.2976 170.8543,104.2555 172.554,103.2303 174.2638,102.2221 175.9834,101.2309 177.7127,100.2568 179.4515,99.3 181.1996,98.3606 182.9569,97.4385 184.7232,96.534 186.4984,95.6471 188.2821,94.7779 190.0743,93.9264 191.8748,93.0929 193.6834,92.2772 195.5,91.4796 197.3243,90.7 199.1561,89.9386 200.9954,89.1955 202.8418,88.4707 204.6953,87.7642 206.5556,87.0762 208.4226,86.4067 210.296,85.7557 212.1758,85.1234 214.0616,84.5098 215.9533,83.915 217.8508,83.3389 219.7538,82.7817 221.6622,82.2435 223.5757,81.7242 225.4942,81.2239 227.4175,80.7427 229.3454,80.2806 231.2777,79.8376 233.2143,79.4138 235.1548,79.0093 237.0992,78.624 239.0472,78.258 240.9987,77.9114 242.9534,77.5841 244.9113,77.2763 246.8719,76.9878 248.8353,76.7189 250.8012,76.4694 252.7693,76.2393 254.7396,76.0289 256.7117,75.8379 258.6856,75.6665 260.661,75.5147 262.6377,75.3824 264.6156,75.2698 266.5944,75.1767 268.574,75.1033 270.554,75.0494 272.5345,75.0152 274.5151,75.0006 276.4957,75.0056 278.476,75.0302 280.456,75.0744 282.4353,75.1383 284.4138,75.2217 286.3913,75.3247 288.3676,75.4472 290.3426,75.5894 292.3159,75.751 294.2874,75.9322 296.257,76.1329 298.2245,76.353 300.1895,76.5926 302.1521,76.8517 304.1119,77.1301 306.0687,77.4279 308.0224,77.745 309.9729,78.0815 311.9198,78.4372 313.863,78.8122 315.8024,79.2063 317.7376,79.6196 319.6686,80.052 321.5952,80.5035 323.5171,80.974 325.4342,81.4635 327.3463,81.9718 329.2531,82.4991 331.1546,83.0452 333.0506,83.61 334.9407,84.1935 336.8249,84.7957 338.703,85.4164 340.5748,86.0557 342.4401,86.7134 344.2988,87.3896 346.1506,88.084 347.9953,88.7967 349.8328,89.5275 351.663,90.2765 353.4856,91.0434 355.3004,91.8284 357.1073,92.6312 358.9061,93.4518 360.6967,94.2901 362.4788,95.146 364.2523,96.0195 366.017,96.9104 367.7727,97.8187 369.5193,98.7442 371.2566,99.6869 372.9844,100.6467 374.7026,101.6235 376.4109,102.6172 378.1093,103.6277 379.7976,104.6549 381.4756,105.6986 383.1431,106.7589 384.8,107.8355 386.4461,108.9284 388.0812,110.0375 389.7053,111.1626 391.3181,112.3036 392.9194,113.4605 394.5092,114.6331 396.0873,115.8213 397.6535,117.025 399.2077,118.244 400.7497,119.4783 402.2794,120.7277 403.7966,121.9921 405.3012,123.2713 406.793,124.5653 408.2719,125.8739 409.7378,127.197 411.1905,128.5345 412.6298,129.8861 414.0557,131.2519 415.4679,132.6316 416.8664,134.0251 418.2511,135.4323 419.6217,136.8531 420.9781,138.2872 422.3203,139.7346 423.6481,141.1952 424.9614,142.6687 426.26,144.155 427.5438,145.654 428.8127,147.1655 430.0666,148.6895 431.3053,150.2256 432.5288,151.7739 433.7369,153.3341 434.9295,154.906 436.1064,156.4896 437.2677,158.0847 438.4131,159.691 439.5426,161.3086 440.656,162.9371 441.7532,164.5764 442.8342,166.2265 443.8988,167.887 444.9469,169.5579 445.9785,171.239 446.9934,172.9301 447.9915,174.631 448.9728,176.3417 449.9371,178.0619 450.8844,179.7914 451.8145,181.5301 452.7274,183.2778 453.623,185.0344 454.5013,186.7997 455.362,188.5734 456.2051,190.3555 457.0307,192.1457 457.8385,193.9439 458.6285,195.7499 459.4006,197.5635 460.1548,199.3846 460.891,201.2129 461.6091,203.0484 462.3091,204.8907 462.9908,206.7398 463.6543,208.5954 464.2994,210.4574 464.9261,212.3256 465.5344,214.1998 466.1241,216.0799 466.6952,217.9655 467.2478,219.8566 467.7816,221.7531 468.2968,223.6545 468.7931,225.5609 469.2707,227.4721 469.7293,229.3877 470.1691,231.3077 470.5899,233.2318 470.9918,235.16 471.3746,237.0919 471.7383,239.0274 472.083,240.9663 472.4085,242.9084 472.7149,244.8536 473.0022,246.8016 473.2702,248.7523 473.519,250.7054 473.7485,252.6608 473.9588,254.6183 474.1497,256.5777 474.3214,258.5388 474.4738,260.5014 474.6068,262.4654 474.7205,264.4304 474.8149,266.3964 474.8899,268.3632 474.9455,270.3305 474.9818,272.2982 474.9987,274.2661 474.9962,276.234 474.9744,278.2017 474.9332,280.1689 474.8727,282.1356 474.7928,284.1016 474.6936,286.0665 474.5751,288.0304 474.4372,289.9928 474.2801,291.9538 474.1037,293.913 473.9081,295.8703 473.6932,297.8256 473.4591,299.7785 473.2059,301.729 472.9334,303.6768 472.6419,305.6217 472.3312,307.5636 472.0015,309.5023 471.6528,311.4376 471.285,313.3692 470.8983,315.2971 470.4927,317.221 470.0682,319.1407 469.6249,321.0561 469.1627,322.967 468.6819,324.8732 468.1823,326.7744 467.6641,328.6706 467.1273,330.5615 466.572,332.447 465.9982,334.3269 465.406,336.2009 464.7954,338.069 464.1665,339.9309 463.5194,341.7864 462.8541,343.6355 462.1707,345.4778 461.4693,347.3132 460.7499,349.1416 460.0126,350.9628 459.2574,352.7766 458.4846,354.5827 457.694,356.3812 456.8859,358.1717 456.0602,359.9541 455.2171,361.7282 454.3567,363.494 453.479,365.2511 452.5841,366.9994 451.6721,368.7388 450.7432,370.469 449.7973,372.19 448.8346,373.9016 447.8552,375.6035 446.8592,377.2957 445.8467,378.978 444.8177,380.6502 443.7724,382.3121 442.7109,383.9636 441.6332,385.6045 440.5396,387.2348 439.4301,388.8541 438.3047,390.4624 437.1637,392.0595 436.0071,393.6453 434.8351,395.2196 433.6477,396.7823 432.445,398.3331 431.2273,399.8721 429.9946,401.3989 428.747,402.9135 427.4846,404.4158 426.2077,405.9055 424.9162,407.3825 423.6103,408.8468 422.2903,410.2981 420.956,411.7364 419.6079,413.1614 418.2458,414.5731 416.87,415.9713 415.4807,417.3558 414.0778,418.7267 412.6617,420.0836 411.2324,421.4266 409.79,422.7554 408.3347,424.0699 406.8667,425.3701 405.3861,426.6558 403.893,427.9268 402.3875,429.1831 400.8699,430.4245 399.3402,431.6509 397.7987,432.8622 396.2454,434.0583 394.6806,435.2391 393.1043,436.4044 391.5167,437.5542 389.918,438.6883 388.3083,439.8067 386.6878,440.9091 385.0566,441.9956 383.415,443.066 381.763,444.1203 380.1008,445.1582 378.4286,446.1798 376.7465,447.1849 375.0548,448.1734 373.3535,449.1453 371.6428,450.1004 369.9229,451.0387 368.194,451.9601 366.4563,452.8644 364.7098,453.7517 362.9548,454.6217 361.1914,455.4745 359.4198,456.3099 357.6402,457.128 355.8528,457.9285 354.0576,458.7114 352.255,459.4767 350.445,460.2243 348.6279,460.9541 346.8038,461.6661 344.9729,462.3601 343.1353,463.0361 341.2913,463.6941 339.441,464.334 337.5846,464.9557 335.7223,465.5592 333.8543,466.1444 331.9807,466.7113 330.1017,467.2597 328.2175,467.7898 326.3283,468.3013 324.4342,468.7944 322.5355,469.2688 320.6323,469.7247 318.7249,470.1618 316.8133,470.5803 314.8978,470.98 312.9785,471.361 311.0557,471.7231 309.1296,472.0664 307.2002,472.3908 305.2678,472.6964 303.3327,472.983 301.3948,473.2506 299.4546,473.4993 297.5121,473.729 295.5675,473.9396 293.621,474.1313 291.6728,474.3038 289.7231,474.4573 287.7721,474.5918 285.8199,474.7071 283.8668,474.8034 281.9129,474.8805 279.9585,474.9385 278.0036,474.9774 276.0485,474.9973 274.0934,474.9979 272.1385,474.9795 270.184,474.942 268.2299,474.8854 266.2766,474.8097 264.3242,474.7149 262.3729,474.601 260.4229,474.4681 258.4744,474.3161 256.5275,474.1451 254.5825,473.9551 252.6395,473.7461 250.6987,473.5181 248.7603,473.2712 246.8245,473.0054 244.8915,472.7207 242.9614,472.4171 241.0344,472.0948 239.1108,471.7536 237.1907,471.3936 235.2742,471.015 233.3617,470.6176 231.4531,470.2016 229.5489,469.767 227.649,469.3139 225.7537,468.8422 223.8632,468.3521 221.9776,467.8435 220.0972,467.3166 218.2221,466.7714 216.3525,466.2079 214.4885,465.6262 212.6304,465.0264 210.7783,464.4085 208.9324,463.7725 207.0929,463.1186 205.2599,462.4468 203.4336,461.7572 201.6142,461.0498 199.8019,460.3247 197.9969,459.582 196.1992,458.8217 194.4091,458.044 192.6268,457.2489 190.8524,456.4364 189.086,455.6067 187.328,454.7599 185.5783,453.8959 183.8372,453.015 182.1049,452.1172 180.3814,451.2025 178.6671,450.2711 176.962,449.3231 175.2663,448.3585 173.5801,447.3775 171.9037,446.3801 170.2371,445.3665 168.5806,444.3367 166.9343,443.2908 165.2983,442.229 163.6728,441.1513 162.0579,440.0578 160.4539,438.9487 158.8608,437.8241 157.2788,436.684 155.7081,435.5286 154.1488,434.358 152.601,433.1723 151.0649,431.9716 149.5407,430.7561 148.0284,429.5258 146.5283,428.2809 145.0404,427.0214 143.565,425.7476 142.1021,424.4595 140.6518,423.1573 139.2144,421.841 137.79,420.5109 136.3786,419.1669 134.9805,417.8094 133.5956,416.4384 132.2243,415.0539 130.8666,413.6563 129.5226,412.2455 128.1925,410.8218 126.8764,409.3853 125.5744,407.936 124.2866,406.4742 123.0132,405.0 121.7542,403.5135 120.5098,402.0149 119.2801,400.5043 118.0653,398.9818 116.8654,397.4477 115.6805,395.902 114.5108,394.3449 113.3563,392.7766 112.2172,391.1971 111.0936,389.6067 109.9856,388.0056 108.8933,386.3937 107.8167,384.7714 106.7561,383.1387 105.7114,381.4959 104.6828,379.843 103.6704,378.1803 102.6743,376.5078 101.6945,374.8258 100.7312,373.1345 99.7844,371.4339 98.8543,369.7242 97.9408,368.0056 97.0442,366.2784 96.1645,364.5425 95.3017,362.7982 94.456,361.0457 93.6274,359.2851 92.816,357.5166 92.0219,355.7404 91.2451,353.9566 90.4858,352.1654 89.7439,350.367 89.0196,348.5615 88.3129,346.7491 87.6239,344.93 86.9527,343.1044 86.2993,341.2724 85.6637,339.4342 85.0461,337.59 84.4465,335.74 83.8649,333.8843 83.3014,332.0231 82.756,330.1566 82.2289,328.2849 81.7199,326.4083 81.2293,324.5269 80.757,322.6409 80.3031,320.7505 79.8676,318.8559 79.4505,316.9571 79.052,315.0545 78.6719,313.1482 78.3104,311.2384 77.9676,309.3252 77.6433,307.4088 77.3377,305.4895 77.0507,303.5673 76.7825,301.6426 76.533,299.7154 76.3022,297.786 76.0902,295.8544 75.897,293.921 75.7226,291.9859 75.567,290.0493 75.4302,288.1113 75.3123,286.1722 75.2132,284.2321 75.1329,282.2912 75.0716,280.3497 75.029,278.4078 75.0054,276.4656 75.0006,274.5234 75.0146,272.5812 75.0475,270.6394 75.0993,268.6981 75.1699,266.7575 75.2594,264.8177 75.3676,262.879 75.4947,260.9415 75.6406,259.0054 75.8053,257.0708 75.9887,255.1381 76.1909,253.2073 76.4117,251.2786 76.6513,249.3523 76.9096,247.4284 77.1865,245.5072 77.482,243.5889 77.7962,241.6736 78.1289,239.7615 78.4801,237.8528 78.8497,235.9477 79.2379,234.0464 79.6445,232.149 80.0694,230.2557 80.5126,228.3667 80.9742,226.4821 81.454,224.6022 81.952,222.7271 82.4681,220.857 83.0023,218.9921 83.5546,217.1326 84.1248,215.2785 84.713,213.4302 85.319,211.5877 85.9429,209.7512 86.5845,207.921 87.2438,206.0971 87.9207,204.2798 88.6152,202.4692 89.3272,200.6656 90.0566,198.8689 90.8034,197.0795 91.5674,195.2975 92.3487,193.5231 93.147,191.7564 93.9625,189.9976 94.7949,188.2468 95.6442,186.5043 96.5103,184.7702 97.3931,183.0446 98.2926,181.3277 99.2087,179.6196 100.1412,177.9206 101.0901,176.2308 102.0553,174.5504 103.0367,172.8794 104.0342,171.2181 105.0477,169.5666 106.0771,167.925 107.1223,166.2936 108.1832,164.6725 109.2598,163.0617 110.3518,161.4616 111.4593,159.8721 112.582,158.2935 113.72,156.726 114.873,155.1696 116.041,153.6245 117.2238,152.0908 118.4214,150.5687 119.6336,149.0584 120.8604,147.5599 122.1015,146.0735 123.3569,144.5991 124.6265,143.1371 125.9102,141.6875 127.2077,140.2504 128.5191,138.8261 129.8441,137.4145 131.1827,136.0159 132.5346,134.6304 133.8999,133.2581 135.2784,131.8991 136.6698,130.5536 138.0742,129.2217 139.4913,127.9034 140.9211,126.599 142.3634,125.3086 143.818,124.0322 145.2848,122.77 146.7637,121.5221 148.2546,120.2886 149.7573,119.0697 151.2716,117.8654 152.7974,116.6759 154.3347,115.5012 155.8831,114.3415 157.4426,113.1968 159.0131,112.0674 160.5943,110.9532 162.1862,109.8545 163.7886,108.7712 165.4013,107.7035 167.0241,106.6515 168.657,105.6153 170.2998,104.595 171.9523,103.5906 173.6144,102.6023 175.2859,101.6302 176.9666,100.6743 178.6564,99.7347 180.3552,98.8116 182.0627,97.9049 183.7789,97.0149 185.5035,96.1415 187.2364,95.2848 188.9774,94.445 190.7263,93.6221 192.4831,92.8161 194.2475,92.0272 196.0194,91.2554 197.7986,90.5008 199.5849,89.7635 201.3782,89.0435 203.1782,88.3409 204.985,87.6557 206.7981,86.988 208.6176,86.3379 210.4432,85.7055 212.2747,85.0907 214.112,84.4937 215.9549,83.9145 217.8032,83.3531 219.6568,82.8096 221.5155,82.2841 223.3791,81.7766 225.2475,81.2871 227.1204,80.8157 228.9976,80.3624 230.8791,79.9273 232.7647,79.5104 234.6541,79.1118 236.5471,78.7314 238.4437,78.3693 240.3436,78.0255 242.2467,77.7002 244.1527,77.3932 246.0615,77.1047 247.973,76.8346 249.8869,76.5829 251.803,76.3498 253.7212,76.1352 255.6414,75.9391 257.5632,75.7616" stroke="rgb(0%,0%,0%)" /><polyline fill="none" points="424.679,192.3494 426.0063,193.8623 427.3183,195.3886 428.615,196.928 429.8961,198.4805 431.1616,200.0458 432.4114,201.6239 433.6452,203.2145 434.863,204.8176 436.0647,206.4329 437.2501,208.0602 438.4191,209.6995 439.5716,211.3505 440.7074,213.0131 441.8265,214.6872 442.9287,216.3724 444.014,218.0688 445.0821,219.7761 446.1331,221.4941 447.1667,223.2226 448.1829,224.9616 449.1816,226.7108 450.1627,228.47 451.126,230.239 452.0715,232.0178 452.9991,233.8061 453.9086,235.6037 454.8001,237.4104 455.6733,239.2261 456.5282,241.0505 457.3647,242.8836 458.1828,244.7251 458.9823,246.5747 459.7631,248.4325 460.5252,250.298 461.2686,252.1713 461.993,254.052 462.6985,255.94 463.3849,257.835 464.0522,259.737 464.7004,261.6457 465.3293,263.5608 465.9389,265.4823 466.5291,267.41 467.0999,269.3435 467.6511,271.2828 468.1829,273.2276 468.695,275.1778 469.1874,277.1331 469.6602,279.0933 470.1131,281.0583 470.5462,283.0278 470.9595,285.0017 471.3529,286.9797 471.7263,288.9617 472.0797,290.9474 472.4131,292.9366 472.7264,294.9292 473.0197,296.925 473.2928,298.9236 473.5457,300.925 473.7784,302.929 473.991,304.9352 474.1832,306.9436 474.3553,308.9539 474.507,310.9659 474.6384,312.9794 474.7496,314.9942 474.8403,317.0101 474.9108,319.0269 474.9609,321.0444 474.9906,323.0624 475.0,325.0806 474.989,327.099 474.9576,329.1172 474.9059,331.135 474.8338,333.1523 474.7413,335.1689 474.6285,337.1845 474.4953,339.1989 474.3418,341.212 474.168,343.2235 473.9739,345.2332 473.7595,347.241 473.5248,349.2465 473.2699,351.2497 472.9948,353.2502 472.6994,355.248 472.3839,357.2428 472.0482,359.2343 471.6925,361.2224 471.3167,363.207 470.9208,365.1877 470.5049,367.1643 470.0691,369.1368 469.6133,371.1048 469.1377,373.0682 468.6422,375.0268 468.127,376.9804 467.592,378.9287 467.0374,380.8716 466.4631,382.8089 465.8693,384.7403 465.256,386.6658 464.6232,388.585 463.971,390.4977 463.2995,392.4039 462.6088,394.3033 461.8988,396.1957 461.1698,398.0808 460.4217,399.9586 459.6546,401.8288 458.8687,403.6913 458.0639,405.5457 457.2404,407.392 456.3982,409.23 455.5375,411.0594 454.6583,412.8801 453.7606,414.6919 452.8447,416.4946 451.9106,418.288 450.9583,420.0719 449.988,421.8462 448.9998,423.6107 447.9937,425.3652 446.97,427.1094 445.9286,428.8433 444.8696,430.5666 443.7933,432.2792 442.6996,433.9809 441.5887,435.6715 440.4608,437.3509 439.3159,439.0188 438.1541,440.6752 436.9756,442.3197 435.7804,443.9523 434.5688,445.5728 433.3407,447.181 432.0965,448.7768 430.836,450.36 429.5596,451.9304 428.2673,453.4879 426.9593,455.0322 425.6356,456.5634 424.2965,458.0811 422.942,459.5852 421.5723,461.0756 420.1875,462.5521 418.7878,464.0146 417.3734,465.4629 415.9442,466.8969 414.5006,468.3164 413.0426,469.7212 411.5705,471.1113 410.0842,472.4864 408.5841,473.8465 407.0702,475.1914 405.5427,476.521 404.0018,477.835 402.4475,479.1335 400.8802,480.4162 399.2998,481.683 397.7067,482.9337 396.1009,484.1684 394.4826,485.3867 392.852,486.5887 391.2093,487.7741 389.5546,488.9428 387.888,490.0948 386.2098,491.2299 384.5201,492.348 382.8191,493.4489 381.107,494.5326 379.3839,495.599 377.65,496.6478 375.9055,497.6791 374.1506,498.6927 372.3855,499.6885 370.6102,500.6664 368.8251,501.6263 367.0303,502.5681 365.2259,503.4917 363.4123,504.397 361.5894,505.2839 359.7576,506.1523 357.917,507.0021 356.0678,507.8333 354.2102,508.6457 352.3444,509.4393 350.4706,510.2139 348.5889,510.9695 346.6996,511.7061 344.8029,512.4235 342.8989,513.1216 340.9879,513.8004 339.07,514.4599 337.1454,515.0998 335.2143,515.7203 333.277,516.3212 331.3336,516.9024 329.3844,517.4639 327.4295,518.0056 325.4691,518.5274 323.5034,519.0294 321.5327,519.5115 319.5571,519.9735 317.5768,520.4155 315.5921,520.8374 313.6031,521.2391 311.6101,521.6207 309.6132,521.982 307.6127,522.3231 305.6087,522.6439 303.6015,522.9443 301.5913,523.2244 299.5783,523.484 297.5626,523.7232 295.5446,523.942 293.5243,524.1403 291.5021,524.318 289.4781,524.4753 287.4525,524.612 285.4255,524.7281 283.3974,524.8236 281.3684,524.8986 279.3386,524.9529 277.3083,524.9867 275.2777,524.9998 273.2469,524.9923 271.2163,524.9642 269.186,524.9155 267.1562,524.8461 265.1271,524.7562 263.099,524.6456 261.072,524.5144 259.0463,524.3627 257.0223,524.1904 255.0,523.9975 252.9797,523.7841 250.9615,523.5501 248.9458,523.2957 246.9327,523.0208 244.9224,522.7254 242.9152,522.4096 240.9111,522.0735 238.9106,521.7169 236.9136,521.3401 234.9205,520.9429 232.9315,520.5256 230.9467,520.088 228.9665,519.6302 226.9908,519.1523 225.0201,518.6544 223.0545,518.1364 221.0941,517.5984 219.1392,517.0406 217.1901,516.4628 215.2468,515.8653 213.3096,515.248 211.3788,514.611 209.4544,513.9544 207.5367,513.2783 205.6259,512.5826 203.7222,511.8676 201.8259,511.1331 199.937,510.3794 198.0558,509.6066 196.1824,508.8146 194.3172,508.0035 192.4602,507.1735 190.6117,506.3246 188.7719,505.4569 186.9408,504.5706 185.1189,503.6656 183.3061,502.7421 181.5028,501.8001 179.7091,500.8398 177.9252,499.8613 176.1512,498.8647 174.3875,497.85 172.634,496.8174 170.8911,495.7669 169.1589,494.6987 167.4376,493.613 165.7274,492.5097 164.0284,491.389 162.3408,490.2511 160.6649,489.0959 159.0007,487.9238 157.3485,486.7347 155.7084,485.5288 154.0805,484.3063 152.4652,483.0671 150.8625,481.8116 149.2726,480.5398 147.6956,479.2517 146.1318,477.9477 144.5813,476.6277 143.0443,475.292 141.5208,473.9406 140.0112,472.5738 138.5155,471.1916 137.0338,469.7941 135.5665,468.3816 134.1135,466.9542 132.6751,465.512 131.2514,464.0552 129.8426,462.5838 128.4487,461.0982 127.07,459.5984 125.7066,458.0845 124.3587,456.5568 123.0263,455.0153 121.7096,453.4604 120.4088,451.892 119.124,450.3103 117.8554,448.7157 116.603,447.1081 115.367,445.4877 114.1475,443.8548 112.9446,442.2095 111.7586,440.5519 110.5895,438.8823 109.4374,437.2008 108.3024,435.5075 107.1847,433.8028 106.0845,432.0866 105.0017,430.3593 103.9365,428.6209 102.8891,426.8717 101.8595,425.1118 100.8479,423.3415 99.8544,421.5609 98.879,419.7701 97.9218,417.9695 96.9831,416.1591 96.0628,414.3392 95.1611,412.5099 94.2781,410.6714 93.4138,408.8239 92.5684,406.9677 91.7419,405.1029 90.9344,403.2296 90.1461,401.3482 89.377,399.4587 88.6271,397.5614 87.8966,395.6565 87.1856,393.7441 86.4941,391.8245 85.8221,389.8979 85.1699,387.9645 84.5374,386.0244 83.9246,384.0779 83.3318,382.1252 82.7588,380.1664 82.2059,378.2019 81.673,376.2317 81.1603,374.2561 80.6677,372.2753 80.1953,370.2895 79.7432,368.2989 79.3115,366.3037 78.9001,364.3041 78.5091,362.3003 78.1385,360.2926 77.7885,358.2811 77.459,356.2661 77.1501,354.2478 76.8618,352.2263 76.5942,350.2019 76.3472,348.1748 76.1209,346.1452 75.9154,344.1133 75.7306,342.0793 75.5666,340.0435 75.4233,338.006 75.3009,335.9671 75.1993,333.927 75.1186,331.8859 75.0587,329.8439 75.0196,327.8014 75.0014,325.7585 75.0041,323.7154 75.0277,321.6724 75.0721,319.6297 75.1374,317.5875 75.2236,315.5459 75.3306,313.5052 75.4585,311.4657 75.6072,309.4275 75.7767,307.3909 75.9671,305.356 76.1782,303.3231 76.4101,301.2923 76.6628,299.264 76.9362,297.2382 77.2302,295.2153 77.545,293.1955 77.8804,291.1788 78.2364,289.1657 78.613,287.1561 79.0102,285.1505 79.4278,283.149 79.8659,281.1517 80.3244,279.159 80.8032,277.1709 81.3024,275.1878 81.8219,273.2098 82.3616,271.2372 82.9214,269.2701 83.5014,267.3088 84.1014,265.3534 84.7214,263.4041 85.3613,261.4613 86.0211,259.525 86.7007,257.5955 87.4,255.6729 88.119,253.7576 88.8575,251.8496 89.6156,249.9492 90.3931,248.0566 91.1899,246.172 92.0061,244.2955 92.8414,242.4274 93.6958,240.5679 94.5692,238.7172 95.4616,236.8754 96.3727,235.0428 97.3027,233.2195 98.2513,231.4058 99.2184,229.6018 100.204,227.8077 101.2079,226.0237 102.2301,224.25 103.2704,222.4869 104.3288,220.7344 105.405,218.9927 106.4991,217.2621 107.6109,215.5427 108.7403,213.8347 109.8872,212.1383 111.0514,210.4537 112.2328,208.781 113.4314,207.1205 114.6469,205.4722 115.8793,203.8364 117.1285,202.2132 118.3942,200.6029 119.6765,199.0056 120.975,197.4214 122.2898,195.8505 123.6207,194.2931 124.9675,192.7493 126.33,191.2194 127.7083,189.7035 129.102,188.2017 130.5111,186.7142 131.9355,185.2411 133.3749,183.7827 134.8292,182.339 136.2983,180.9103 137.782,179.4966 139.2802,178.0982 140.7927,176.7151 142.3194,175.3476 143.86,173.9957 145.4145,172.6596 146.9827,171.3395 148.5643,170.0354 150.1594,168.7476 151.7675,167.4762 153.3887,166.2212 155.0228,164.9829 156.6695,163.7614 158.3287,162.5567 160.0003,161.3691 161.684,160.1987 163.3797,159.0455 165.0871,157.9097 166.8062,156.7915 168.5368,155.6909 170.2786,154.608 172.0315,153.5431 173.7953,152.4961 175.5698,151.4672 177.3548,150.4566 179.1502,149.4642 180.9557,148.4903 182.7712,147.5349 184.5965,146.5982 186.4313,145.6802 188.2755,144.7811 190.129,143.9008 191.9914,143.0396 193.8627,142.1975 195.7426,141.3747 197.6309,140.5711 199.5274,139.7869 201.4319,139.0222 203.3443,138.2771 205.2642,137.5515 207.1916,136.8457 209.1262,136.1597 211.0679,135.4936 213.0163,134.8474 214.9713,134.2212 216.9328,133.6151 218.9004,133.0291 220.874,132.4633 222.8534,131.9178 224.8384,131.3926 226.8288,130.8878 228.8243,130.4035 230.8247,129.9396 232.8299,129.4963 234.8396,129.0736 236.8536,128.6716 238.8717,128.2902 240.8937,127.9296 242.9194,127.5897 244.9486,127.2706 246.9809,126.9724 249.0164,126.6951 251.0546,126.4386 253.0955,126.2031 255.1387,125.9886 257.1841,125.7951 259.2315,125.6226 261.2806,125.4711 263.3313,125.3407 265.3833,125.2313 267.4363,125.1431 269.4903,125.0759 271.5448,125.0298 273.5999,125.0049 275.6552,125.0011 277.7104,125.0184 279.7655,125.0568 281.8202,125.1163 283.8742,125.197 285.9273,125.2987 287.9794,125.4216 290.0302,125.5656 292.0795,125.7306 294.127,125.9167 296.1726,126.1239 298.2161,126.352 300.2572,126.6012 302.2956,126.8714 304.3313,127.1625 306.364,127.4746 308.3934,127.8075 310.4194,128.1613 312.4417,128.536 314.4601,128.9314 316.4744,129.3476 318.4844,129.7845 320.4899,130.242 322.4907,130.7202 324.4865,131.219 326.4771,131.7382 328.4624,132.278 330.4421,132.8382 332.416,133.4187 334.3839,134.0195 336.3457,134.6406 338.3009,135.2818 340.2496,135.9432 342.1914,136.6245 344.1262,137.3259 346.0538,138.0472 347.9738,138.7882 349.8863,139.5491 351.7909,140.3296 353.6874,141.1297 355.5757,141.9493 357.4554,142.7883 359.3266,143.6467 361.1889,144.5243 363.0421,145.4211 364.886,146.3369 366.7205,147.2717 368.5454,148.2254 370.3604,149.1978 372.1653,150.189 373.9601,151.1987 375.7444,152.2268 377.5181,153.2734 379.281,154.3381 381.0329,155.421 382.7736,156.522 384.503,157.6408 386.2208,158.7775 387.9269,159.9318 389.6211,161.1037 391.3032,162.293 392.973,163.4996 394.6303,164.7234 396.275,165.9643 397.9069,167.222 399.5259,168.4966 401.1316,169.7879 402.7241,171.0956 404.303,172.4198 405.8683,173.7602 407.4198,175.1167 408.9572,176.4892 410.4805,177.8775 411.9895,179.2815 413.4839,180.701 414.9638,182.1359 416.4288,183.586 417.8788,185.0512 419.3137,186.5314 420.7333,188.0263 422.1375,189.5358 423.5261,191.0598 424.899,192.598 426.256,194.1504 427.597,195.7168 428.9219,197.297 430.2304,198.8908 431.5224,200.4981 432.7979,202.1186 434.0566,203.7523 435.2985,205.399 436.5233,207.0584 437.7311,208.7305 438.9215,210.415 440.0946,212.1117 441.2502,213.8205 442.3881,215.5412 443.5082,217.2736 444.6105,219.0176 445.6948,220.7729 446.7609,222.5393 447.8088,224.3168 448.8384,226.105 449.8494,227.9038 450.8419,229.713 451.8158,231.5324 452.7708,233.3619 453.7069,235.2012 454.6241,237.0501 455.5221,238.9084 456.401,240.776 457.2606,242.6526 458.1008,244.5381 458.9215,246.4322 459.7226,248.3348 460.5041,250.2456 461.2659,252.1645 462.0079,254.0912 462.7299,256.0255 463.432,257.9672 464.114,259.9162 464.7759,261.8722 465.4175,263.8349 466.0389,265.8043 466.64,267.7801 467.2206,269.762 467.7808,271.7499 468.3204,273.7436 468.8394,275.7428 469.3378,277.7473 469.8155,279.757 470.2724,281.7715 470.7085,283.7908 471.1237,285.8145 471.518,287.8425 471.8913,289.8745 472.2437,291.9104 472.575,293.9499 472.8853,295.9927 473.1744,298.0387 473.4424,300.0877 473.6892,302.1395 473.9148,304.1937 474.1192,306.2503 474.3023,308.3089 474.4641,310.3694 474.6047,312.4315 474.7239,314.4951 474.8218,316.5598 474.8984,318.6256 474.9536,320.6921 474.9874,322.7591 474.9999,324.8265 474.991,326.8939 474.9608,328.9613 474.9091,331.0283 474.8361,333.0947 474.7418,335.1603 474.626,337.225 474.489,339.2884 474.3305,341.3503 474.1508,343.4106 473.9498,345.469 473.7275,347.5253 473.4839,349.5793 473.2191,351.6307 472.9331,353.6793 472.6258,355.725 472.2975,357.7674 471.948,359.8064 471.5774,361.8418 471.1858,363.8733 470.7732,365.9007 470.3396,367.9239 469.885,369.9425 469.4096,371.9564 468.9134,373.9653 468.3964,375.9691 467.8586,377.9674 467.3002,379.9602 466.7212,381.9472 466.1216,383.9282 465.5015,385.9029 464.861,387.8712 464.2002,389.8328" stroke="rgb(0%,0%,0%)" /><text fill="black" font-size="12" x="55.0" y="275.0">L</text><text fill="black" font-size="12" x="55.0" y="325.0">C</text></svg>