<?xml version="1.0" encoding="utf-8" ?>
<svg baseProfile="tiny" height="150" version="1.2" width="550" xmlns="http://www.w3.org/2000/svg" xmlns:ev="http://www.w3.org/2001/xml-events" xmlns:xlink="http://www.w3.org/1999/xlink"><defs /><polyline fill="none" points="50,115.0 51,114.9803 52,114.9211 53,114.8225 54,114.6846 55,114.5075 56,114.2915 57,114.0367 58,113.7433 59,113.4117 60,113.0423 61,112.6352 62,112.1911 63,111.7102 64,111.1931 65,110.6403 66,110.0523 67,109.4297 68,108.7731 69,108.0832 70,107.3607 71,106.6062 72,105.8205 73,105.0044 74,104.1587 75,103.2843 76,102.3819 77,101.4525 78,100.497 79,99.5163 80,98.5114 81,97.4833 82,96.4331 83,95.3617 84,94.2701 85,93.1596 86,92.0312 87,90.8859 88,89.725 89,88.5495 90,87.3607 91,86.1596 92,84.9476 93,83.7257 94,82.4953 95,81.2574 96,80.0133 97,78.7643 98,77.5116 99,76.2564 100,75.0 101,73.7436 102,72.4884 103,71.2357 104,69.9867 105,68.7426 106,67.5047 107,66.2743 108,65.0524 109,63.8404 110,62.6393 111,61.4505 112,60.275 113,59.1141 114,57.9688 115,56.8404 116,55.7299 117,54.6383 118,53.5669 119,52.5167 120,51.4886 121,50.4837 122,49.503 123,48.5475 124,47.6181 125,46.7157 126,45.8413 127,44.9956 128,44.1795 129,43.3938 130,42.6393 131,41.9168 132,41.2269 133,40.5703 134,39.9477 135,39.3597 136,38.8069 137,38.2898 138,37.8089 139,37.3648 140,36.9577 141,36.5883 142,36.2567 143,35.9633 144,35.7085 145,35.4925 146,35.3154 147,35.1775 148,35.0789 149,35.0197 150,35.0 151,35.0197 152,35.0789 153,35.1775 154,35.3154 155,35.4925 156,35.7085 157,35.9633 158,36.2567 159,36.5883 160,36.9577 161,37.3648 162,37.8089 163,38.2898 164,38.8069 165,39.3597 166,39.9477 167,40.5703 168,41.2269 169,41.9168 170,42.6393 171,43.3938 172,44.1795 173,44.9956 174,45.8413 175,46.7157 176,47.6181 177,48.5475 178,49.503 179,50.4837 180,51.4886 181,52.5167 182,53.5669 183,54.6383 184,55.7299 185,56.8404 186,57.9688 187,59.1141 188,60.275 189,61.4505 190,62.6393 191,63.8404 192,65.0524 193,66.2743 194,67.5047 195,68.7426 196,69.9867 197,71.2357 198,72.4884 199,73.7436 200,75.0 201,76.2564 202,77.5116 203,78.7643 204,80.0133 205,81.2574 206,82.4953 207,83.7257 208,84.9476 209,86.1596 210,87.3607 211,88.5495 212,89.725 213,90.8859 214,92.0312 215,93.1596 216,94.2701 217,95.3617 218,96.4331 219,97.4833 220,98.5114 221,99.5163 222,100.497 223,101.4525 224,102.3819 225,103.2843 226,104.1587 227,105.0044 228,105.8205 229,106.6062 230,107.3607 231,108.0832 232,108.7731 233,109.4297 234,110.0523 235,110.6403 236,111.1931 237,111.7102 238,112.1911 239,112.6352 240,113.0423 241,113.4117 242,113.7433 243,114.0367 244,114.2915 245,114.5075 246,114.6846 247,114.8225 248,114.9211 249,114.9803 250,115.0 251,114.9803 252,114.9211 253,114.8225 254,114.6846 255,114.5075 256,114.2915 257,114.0367 258,113.7433 259,113.4117 260,113.0423 261,112.6352 262,112.1911 263,111.7102 264,111.1931 265,110.6403 266,110.0523 267,109.4297 268,108.7731 269,108.0832 270,107.3607 271,106.6062 272,105.8205 273,105.0044 274,104.1587 275,103.2843 276,102.3819 277,101.4525 278,100.497 279,99.5163 280,98.5114 281,97.4833 282,96.4331 283,95.3617 284,94.2701 285,93.1596 286,92.0312 287,90.8859 288,89.725 289,88.5495 290,87.3607 291,86.1596 292,84.9476 293,83.7257 294,82.4953 295,81.2574 296,80.0133 297,78.7643 298,77.5116 299,76.2564 300,75.0 301,73.7436 302,72.4884 303,71.2357 304,69.9867 305,68.7426 306,67.5047 307,66.2743 308,65.0524 309,63.8404 310,62.6393 311,61.4505 312,60.275 313,59.1141 314,57.9688 315,56.8404 316,55.7299 317,54.6383 318,53.5669 319,52.5167 320,51.4886 321,50.4837 322,49.503 323,48.5475 324,47.6181 325,46.7157 326,45.8413 327,44.9956 328,44.1795 329,43.3938 330,42.6393 331,41.9168 332,41.2269 333,40.5703 334,39.9477 335,39.3597 336,38.8069 337,38.2898 338,37.8089 339,37.3648 340,36.9577 341,36.5883 342,36.2567 343,35.9633 344,35.7085 345,35.4925 346,35.3154 347,35.1775 348,35.0789 349,35.0197 350,35.0 351,35.0197 352,35.0789 353,35.1775 354,35.3154 355,35.4925 356,35.7085 357,35.9633 358,36.2567 359,36.5883 360,36.9577 361,37.3648 362,37.8089 363,38.2898 364,38.8069 365,39.3597 366,39.9477 367,40.5703 368,41.2269 369,41.9168 370,42.6393 371,43.3938 372,44.1795 373,44.9956 374,45.8413 375,46.7157 376,47.6181 377,48.5475 378,49.503 379,50.4837 380,51.4886 381,52.5167 382,53.5669 383,54.6383 384,55.7299 385,56.8404 386,57.9688 387,59.1141 388,60.275 389,61.4505 390,62.6393 391,63.8404 392,65.0524 393,66.2743 394,67.5047 395,68.7426 396,69.9867 397,71.2357 398,72.4884 399,73.7436 400,75.0 401,76.2564 402,77.5116 403,78.7643 404,80.0133 405,81.2574 406,82.4953 407,83.7257 408,84.9476 409,86.1596 410,87.3607 411,88.5495 412,89.725 413,90.8859 414,92.0312 415,93.1596 416,94.2701 417,95.3617 418,96.4331 419,97.4833 420,98.5114 421,99.5163 422,100.497 423,101.4525 424,102.3819 425,103.2843 426,104.1587 427,105.0044 428,105.8205 429,106.6062 430,107.3607 431,108.0832 432,108.7731 433,109.4297 434,110.0523 435,110.6403 436,111.1931 437,111.7102 438,112.1911 439,112.6352 440,113.0423 441,113.4117 442,113.7433 443,114.0367 444,114.2915 445,114.5075 446,114.6846 447,114.8225 448,114.9211 449,114.9803" stroke="rgb(0%,0%,0%)" /><polyline fill="none" points="50,35.0 51,35.0197 52,35.0789 53,35.1775 54,35.3154 55,35.4925 56,35.7085 57,35.9633 58,36.2567 59,36.5883 60,36.9577 61,37.3648 62,37.8089 63,38.2898 64,38.8069 65,39.3597 66,39.9477 67,40.5703 68,41.2269 69,41.9168 70,42.6393 71,43.3938 72,44.1795 73,44.9956 74,45.8413 75,46.7157 76,47.6181 77,48.5475 78,49.503 79,50.4837 80,51.4886 81,52.5167 82,53.5669 83,54.6383 84,55.7299 85,56.8404 86,57.9688 87,59.1141 88,60.275 89,61.4505 90,62.6393 91,63.8404 92,65.0524 93,66.2743 94,67.5047 95,68.7426 96,69.9867 97,71.2357 98,72.4884 99,73.7436 100,75.0 101,76.2564 102,77.5116 103,78.7643 104,80.0133 105,81.2574 106,82.4953 107,83.7257 108,84.9476 109,86.1596 110,87.3607 111,88.5495 112,89.725 113,90.8859 114,92.0312 115,93.1596 116,94.2701 117,95.3617 118,96.4331 119,97.4833 120,98.5114 121,99.5163 122,100.497 123,101.4525 124,102.3819 125,103.2843 126,104.1587 127,105.0044 128,105.8205 129,106.6062 130,107.3607 131,108.0832 132,108.7731 133,109.4297 134,110.0523 135,110.6403 136,111.1931 137,111.7102 138,112.1911 139,112.6352 140,113.0423 141,113.4117 142,113.7433 143,114.0367 144,114.2915 145,114.5075 146,114.6846 147,114.8225 148,114.9211 149,114.9803 150,115.0 151,114.9803 152,114.9211 153,114.8225 154,114.6846 155,114.5075 156,114.2915 157,114.0367 158,113.7433 159,113.4117 160,113.0423 161,112.6352 162,112.1911 163,111.7102 164,111.1931 165,110.6403 166,110.0523 167,109.4297 168,108.7731 169,108.0832 170,107.3607 171,106.6062 172,105.8205 173,105.0044 174,104.1587 175,103.2843 176,102.3819 177,101.4525 178,100.497 179,99.5163 180,98.5114 181,97.4833 182,96.4331 183,95.3617 184,94.2701 185,93.1596 186,92.0312 187,90.8859 188,89.725 189,88.5495 190,87.3607 191,86.1596 192,84.9476 193,83.7257 194,82.4953 195,81.2574 196,80.0133 197,78.7643 198,77.5116 199,76.2564 200,75.0 201,73.7436 202,72.4884 203,71.2357 204,69.9867 205,68.7426 206,67.5047 207,66.2743 208,65.0524 209,63.8404 210,62.6393 211,61.4505 212,60.275 213,59.1141 214,57.9688 215,56.8404 216,55.7299 217,54.6383 218,53.5669 219,52.5167 220,51.4886 221,50.4837 222,49.503 223,48.5475 224,47.6181 225,46.7157 226,45.8413 227,44.9956 228,44.1795 229,43.3938 230,42.6393 231,41.9168 232,41.2269 233,40.5703 234,39.9477 235,39.3597 236,38.8069 237,38.2898 238,37.8089 239,37.3648 240,36.9577 241,36.5883 242,36.2567 243,35.9633 244,35.7085 245,35.4925 246,35.3154 247,35.1775 248,35.0789 249,35.0197 250,35.0 251,35.0197 252,35.0789 253,35.1775 254,35.3154 255,35.4925 256,35.7085 257,35.9633 258,36.2567 259,36.5883 260,36.9577 261,37.3648 262,37.8089 263,38.2898 264,38.8069 265,39.3597 266,39.9477 267,40.5703 268,41.2269 269,41.9168 270,42.6393 271,43.3938 272,44.1795 273,44.9956 274,45.8413 275,46.7157 276,47.6181 277,48.5475 278,49.503 279,50.4837 280,51.4886 281,52.5167 282,53.5669 283,54.6383 284,55.7299 285,56.8404 286,57.9688 287,59.1141 288,60.275 289,61.4505 290,62.6393 291,63.8404 292,65.0524 293,66.2743 294,67.5047 295,68.7426 296,69.9867 297,71.2357 298,72.4884 299,73.7436 300,75.0 301,76.2564 302,77.5116 303,78.7643 304,80.0133 305,81.2574 306,82.4953 307,83.7257 308,84.9476 309,86.1596 310,87.3607 311,88.5495 312,89.725 313,90.8859 314,92.0312 315,93.1596 316,94.2701 317,95.3617 318,96.4331 319,97.4833 320,98.5114 321,99.5163 322,100.497 323,101.4525 324,102.3819 325,103.2843 326,104.1587 327,105.0044 328,105.8205 329,106.6062 330,107.3607 331,108.0832 332,108.7731 333,109.4297 334,110.0523 335,110.6403 336,111.1931 337,111.7102 338,112.1911 339,112.6352 340,113.0423 341,113.4117 342,113.7433 343,114.0367 344,114.2915 345,114.5075 346,114.6846 347,114.8225 348,114.9211 349,114.9803 350,115.0 351,114.9803 352,114.9211 353,114.8225 354,114.6846 355,114.5075 356,114.2915 357,114.0367 358,113.7433 359,113.4117 360,113.0423 361,112.6352 362,112.1911 363,111.7102 364,111.1931 365,110.6403 366,110.0523 367,109.4297 368,108.7731 369,108.0832 370,107.3607 371,106.6062 372,105.8205 373,105.0044 374,104.1587 375,103.2843 376,102.3819 377,101.4525 378,100.497 379,99.5163 380,98.5114 381,97.4833 382,96.4331 383,95.3617 384,94.2701 385,93.1596 386,92.0312 387,90.8859 388,89.725 389,88.5495 390,87.3607 391,86.1596 392,84.9476 393,83.7257 394,82.4953 395,81.2574 396,80.0133 397,78.7643 398,77.5116 399,76.2564 400,75.0 401,73.7436 402,72.4884 403,71.2357 404,69.9867 405,68.7426 406,67.5047 407,66.2743 408,65.0524 409,63.8404 410,62.6393 411,61.4505 412,60.275 413,59.1141 414,57.9688 415,56.8404 416,55.7299 417,54.6383 418,53.5669 419,52.5167 420,51.4886 421,50.4837 422,49.503 423,48.5475 424,47.6181 425,46.7157 426,45.8413 427,44.9956 428,44.1795 429,43.3938 430,42.6393 431,41.9168 432,41.2269 433,40.5703 434,39.9477 435,39.3597 436,38.8069 437,38.2898 438,37.8089 439,37.3648 440,36.9577 441,36.5883 442,36.2567 443,35.9633 444,35.7085 445,35.4925 446,35.3154 447,35.1775 448,35.0789 449,35.0197" stroke="rgb(0%,0%,0%)" /><text fill="black" font-size="12" x="30" y="115.0">L</text><text fill="black" font-size="12" x="30" y="35.0">C</text></svg>